<svg width="31" height="30" viewBox="0 0 31 30" fill="none" xmlns="http://www.w3.org/2000/svg">
<path d="M6.125 11.4868H15.5C16.2753 11.4868 16.9062 10.8559 16.9062 10.0806V6.33057C16.9062 5.55525 16.2753 4.92432 15.5 4.92432H6.125C5.34969 4.92432 4.71875 5.55525 4.71875 6.33057V10.0806C4.71875 10.8559 5.34969 11.4868 6.125 11.4868ZM5.65625 6.33057C5.65625 6.07182 5.86672 5.86182 6.125 5.86182H15.5C15.7583 5.86182 15.9688 6.07182 15.9688 6.33057V10.0806C15.9688 10.3393 15.7583 10.5493 15.5 10.5493H6.125C5.86672 10.5493 5.65625 10.3393 5.65625 10.0806V6.33057Z" fill="#D9D9D9"/>
<path d="M29.367 5.70209L26.2812 1.29443L23.1955 5.70209C22.7609 6.32318 22.5312 7.05209 22.5312 7.81053C22.5312 9.8374 24.1803 11.4869 26.2077 11.4869H26.3548C28.3822 11.4869 30.0312 9.8374 30.0312 7.81053C30.0312 7.05209 29.8016 6.32318 29.367 5.70209ZM26.3548 10.5494H26.2077C24.6973 10.5494 23.4688 9.32084 23.4688 7.81053C23.4688 7.24568 23.6398 6.7024 23.9637 6.23928L26.2812 2.92943L28.5988 6.23975C28.9227 6.7024 29.0938 7.24568 29.0938 7.81053C29.0938 9.32084 27.8652 10.5494 26.3548 10.5494Z" fill="#D9D9D9"/>
<path d="M25.3438 15.1262V26.9556C25.3438 27.7309 24.7128 28.3618 23.9375 28.3618C23.1622 28.3618 22.5312 27.7309 22.5312 26.9556V19.4556C22.5312 18.1632 21.4798 17.1118 20.1875 17.1118H18.7812V3.98682H19.7188C20.2358 3.98682 20.6562 3.56635 20.6562 3.04932V1.17432C20.6562 0.657285 20.2358 0.236816 19.7188 0.236816H1.90625C1.38922 0.236816 0.96875 0.657285 0.96875 1.17432V3.04932C0.96875 3.56635 1.38922 3.98682 1.90625 3.98682H2.84375V29.2993H18.7812V18.0493H20.1875C20.9628 18.0493 21.5938 18.6803 21.5938 19.4556V26.9556C21.5938 28.2479 22.6452 29.2993 23.9375 29.2993C25.2298 29.2993 26.2812 28.2479 26.2812 26.9556V18.5181H27.2188C27.7358 18.5181 28.1562 18.0976 28.1562 17.5806V15.7056C28.1562 15.1885 27.7358 14.7681 27.2188 14.7681H26.5709L27.0397 13.8306H28.625V12.8931H26.4603L25.3438 15.1262ZM1.90625 3.04932V1.17432H19.7188L19.7192 3.04932H18.7812H2.84375H1.90625ZM17.8438 28.3618H3.78125V3.98682H17.8438V28.3618ZM27.2188 17.5806H26.2812V15.7056H27.2188V17.5806Z" fill="#D9D9D9"/>
<path d="M6.59375 12.4243H5.65625V13.3618H6.59375V12.4243Z" fill="#D9D9D9"/>
<path d="M8.46875 12.4243H7.53125V13.3618H8.46875V12.4243Z" fill="#D9D9D9"/>
<path d="M10.3438 12.4243H9.40625V13.3618H10.3438V12.4243Z" fill="#D9D9D9"/>
<path d="M12.2188 12.4243H11.2812V13.3618H12.2188V12.4243Z" fill="#D9D9D9"/>
<path d="M14.0938 12.4243H13.1562V13.3618H14.0938V12.4243Z" fill="#D9D9D9"/>
<path d="M15.9688 12.4243H15.0312V13.3618H15.9688V12.4243Z" fill="#D9D9D9"/>
<path d="M7.53125 8.67432H6.59375V9.61182H7.53125V8.67432Z" fill="#D9D9D9"/>
<path d="M15.0312 8.67432H8.46875V9.61182H15.0312V8.67432Z" fill="#D9D9D9"/>
</svg>
