<svg width="36" height="36" viewBox="0 0 36 36" fill="none" xmlns="http://www.w3.org/2000/svg">
<path d="M18 0.768066C8.35025 0.768066 0.5 8.5876 0.5 18.1976C0.5 27.8076 8.35025 35.6326 18 35.6326C27.6498 35.6326 35.5 27.813 35.5 18.2021C35.5 8.59121 27.6498 0.768066 18 0.768066ZM18 34.1827C9.14702 34.1827 1.94539 27.0117 1.94539 18.1976C1.94539 9.38346 9.14702 2.21345 18 2.21345C26.853 2.21345 34.0546 9.38437 34.0546 18.1976C34.0546 27.0108 26.853 34.1827 18 34.1827ZM29.5251 24.8238C29.429 24.9888 29.2715 25.1091 29.087 25.1584C28.9025 25.2076 28.706 25.1818 28.5405 25.0867L26.7337 24.0469C26.5676 23.9511 26.4463 23.7931 26.3966 23.6079C26.3469 23.4226 26.3728 23.2252 26.4686 23.0591C26.5644 22.8929 26.7224 22.7716 26.9076 22.7219C27.0929 22.6722 27.2903 22.6981 27.4564 22.7939L28.6227 23.4633C29.3278 22.0461 29.7398 20.5013 29.8341 18.9212H28.4953C28.3036 18.9212 28.1198 18.8451 27.9843 18.7095C27.8487 18.574 27.7726 18.3902 27.7726 18.1985C27.7726 18.0068 27.8487 17.823 27.9843 17.6875C28.1198 17.552 28.3036 17.4758 28.4953 17.4758H29.8341C29.7384 15.8932 29.3216 14.3465 28.6091 12.9301L27.4465 13.5986C27.3368 13.6623 27.212 13.6957 27.0851 13.6952C26.9257 13.6956 26.7706 13.6433 26.644 13.5464C26.5174 13.4495 26.4264 13.3135 26.3852 13.1594C26.344 13.0054 26.3548 12.8421 26.416 12.6949C26.4773 12.5477 26.5855 12.4249 26.7238 12.3456L27.8801 11.6816C26.9987 10.361 25.8623 9.22981 24.5377 8.35453L23.8719 9.50903C23.7719 9.66634 23.615 9.77892 23.4339 9.82327C23.2529 9.86761 23.0617 9.84029 22.9003 9.74701C22.7389 9.65373 22.6198 9.5017 22.5679 9.32268C22.516 9.14367 22.5352 8.9515 22.6216 8.78634L23.2892 7.63455C21.8649 6.9238 20.3116 6.50836 18.7227 6.4132V7.74657C18.7227 7.93824 18.6466 8.12206 18.511 8.25759C18.3755 8.39312 18.1917 8.46926 18 8.46926C17.8083 8.46926 17.6245 8.39312 17.489 8.25759C17.3534 8.12206 17.2773 7.93824 17.2773 7.74657V6.4132C15.6882 6.50767 14.1346 6.9225 12.7099 7.63274L13.3775 8.78634C13.4311 8.86856 13.4674 8.96084 13.4842 9.05755C13.501 9.15426 13.4979 9.25338 13.4751 9.34886C13.4523 9.44433 13.4103 9.53417 13.3517 9.61288C13.293 9.6916 13.219 9.75754 13.134 9.80669C13.049 9.85584 12.9549 9.88716 12.8575 9.89875C12.76 9.91035 12.6612 9.90196 12.5671 9.87411C12.4729 9.84625 12.3855 9.79952 12.31 9.73675C12.2346 9.67399 12.1727 9.5965 12.1281 9.50903L11.4587 8.35453C10.1343 9.22972 8.99791 10.3606 8.11628 11.6807L9.27258 12.3456C9.35486 12.3931 9.42697 12.4562 9.48482 12.5316C9.54267 12.6069 9.58512 12.6929 9.60974 12.7846C9.63436 12.8763 9.64067 12.972 9.62831 13.0662C9.61596 13.1603 9.58517 13.2512 9.53772 13.3334C9.49027 13.4157 9.42708 13.4878 9.35175 13.5457C9.27643 13.6035 9.19045 13.646 9.09872 13.6706C9.00699 13.6952 8.91131 13.7015 8.81714 13.6892C8.72297 13.6768 8.63216 13.646 8.54989 13.5986L7.38636 12.9301C6.67556 14.3466 6.26033 15.8929 6.16591 17.4749H7.50831C7.69998 17.4749 7.8838 17.5511 8.01933 17.6866C8.15486 17.8221 8.231 18.0059 8.231 18.1976C8.231 18.3893 8.15486 18.5731 8.01933 18.7086C7.8838 18.8442 7.69998 18.9203 7.50831 18.9203H6.16591C6.26301 20.5027 6.67874 22.0492 7.38816 23.4669L8.5535 22.7975C8.63578 22.7501 8.72659 22.7193 8.82076 22.707C8.91492 22.6946 9.0106 22.7009 9.10233 22.7255C9.19406 22.7501 9.28004 22.7926 9.35537 22.8504C9.43069 22.9083 9.49388 22.9804 9.54134 23.0627C9.58879 23.145 9.61957 23.2358 9.63193 23.3299C9.64429 23.4241 9.63797 23.5198 9.61335 23.6115C9.58873 23.7032 9.54629 23.7892 9.48844 23.8645C9.43059 23.9399 9.35847 24.0031 9.2762 24.0505L7.46947 25.0903C7.30399 25.1852 7.10771 25.2108 6.92342 25.1615C6.73914 25.1123 6.58179 24.9922 6.4857 24.8274C5.32533 22.8249 4.71133 20.5527 4.70517 18.2383C4.70517 18.2256 4.70517 18.2139 4.70517 18.2012C4.70517 18.1886 4.70517 18.1795 4.70517 18.1687C4.70353 15.8787 5.30051 13.6281 6.43692 11.6401C6.44709 11.6169 6.45855 11.5942 6.47125 11.5723C6.48563 11.5475 6.50162 11.5237 6.51913 11.501C7.67588 9.54419 9.31216 7.91444 11.2735 6.76551C11.2952 6.74911 11.3178 6.73403 11.3413 6.72034C11.3647 6.70704 11.3889 6.69498 11.4136 6.68421C13.4096 5.54723 15.6667 4.94802 17.9639 4.94523H18.0289C20.3261 4.94802 22.5832 5.54723 24.5792 6.68421C24.6039 6.69498 24.628 6.70704 24.6515 6.72034C24.6749 6.73403 24.6976 6.74911 24.7192 6.76551C26.6808 7.91415 28.3172 9.54396 29.4736 11.501C29.4912 11.5237 29.5071 11.5475 29.5215 11.5723C29.5342 11.5949 29.5459 11.6175 29.5559 11.6401C30.6967 13.6257 31.2987 15.8751 31.3021 18.1651C31.3021 18.1759 31.3021 18.1868 31.3021 18.1985C31.3021 18.2103 31.3021 18.222 31.3021 18.2346C31.2959 20.5484 30.6822 22.8199 29.5224 24.822L29.5251 24.8238ZM20.823 18.1958C20.8209 17.7633 20.7195 17.3371 20.5265 16.9501C20.3335 16.563 20.0542 16.2255 19.71 15.9636C19.3659 15.7017 18.9661 15.5224 18.5417 15.4395C18.1172 15.3567 17.6793 15.3725 17.262 15.4857L14.7723 11.1911C14.7271 11.1047 14.6649 11.0284 14.5895 10.9667C14.514 10.905 14.4269 10.8592 14.3333 10.832C14.2397 10.8049 14.1415 10.7969 14.0448 10.8087C13.948 10.8204 13.8546 10.8516 13.7702 10.9004C13.6859 10.9492 13.6122 11.0145 13.5537 11.0925C13.4953 11.1705 13.4532 11.2595 13.43 11.3541C13.4068 11.4488 13.403 11.5472 13.4188 11.6434C13.4346 11.7396 13.4697 11.8315 13.522 11.9138L16.0126 16.2075C15.6177 16.6 15.3483 17.1011 15.2388 17.6471C15.1293 18.1931 15.1846 18.7593 15.3976 19.2737C15.6106 19.7882 15.9717 20.2278 16.4351 20.5366C16.8985 20.8454 17.4432 21.0095 18 21.008C18.2486 21.0078 18.4961 20.975 18.7362 20.9104L19.2132 21.7343C19.3132 21.8916 19.4701 22.0042 19.6512 22.0485C19.8322 22.0929 20.0234 22.0655 20.1848 21.9723C20.3462 21.879 20.4653 21.7269 20.5172 21.5479C20.5691 21.3689 20.5499 21.1768 20.4635 21.0116L19.9874 20.1886C20.2512 19.928 20.4609 19.6177 20.6043 19.2757C20.7477 18.9337 20.822 18.5667 20.823 18.1958ZM16.6287 18.1958C16.6296 17.9561 16.6933 17.7208 16.8137 17.5134C16.934 17.306 17.1066 17.1339 17.3143 17.0142C17.5749 16.8651 17.8773 16.8061 18.1747 16.8464C18.4722 16.8866 18.748 17.0238 18.9596 17.2368C19.1711 17.4497 19.3065 17.7265 19.3448 18.0242C19.3831 18.3219 19.3221 18.6239 19.1713 18.8834C19.0205 19.143 18.7883 19.3455 18.5107 19.4597C18.2331 19.5738 17.9256 19.5933 17.6359 19.5149C17.3461 19.4366 17.0903 19.2649 16.908 19.0264C16.7258 18.7879 16.6273 18.496 16.6278 18.1958H16.6287ZM22.1943 25.8292H13.8057C13.614 25.8292 13.4302 25.9054 13.2947 26.0409C13.1591 26.1764 13.083 26.3603 13.083 26.5519V30.7282C13.083 30.9199 13.1591 31.1037 13.2947 31.2392C13.4302 31.3747 13.614 31.4509 13.8057 31.4509H22.1943C22.386 31.4509 22.5698 31.3747 22.7053 31.2392C22.8409 31.1037 22.917 30.9199 22.917 30.7282V26.5519C22.917 26.3603 22.8409 26.1764 22.7053 26.0409C22.5698 25.9054 22.386 25.8292 22.1943 25.8292ZM21.4716 30.0055H14.5284V27.2746H21.4716V30.0055Z" fill="#D9D9D9"/>
</svg>
