<svg width="65" height="64" viewBox="0 0 65 64" fill="none" xmlns="http://www.w3.org/2000/svg">
<path d="M39.2988 37C37.0928 37 35.2988 38.794 35.2988 41V43H37.2988V41C37.2988 39.897 38.1958 39 39.2988 39C40.4018 39 41.2988 39.897 41.2988 41V41.873C41.2988 42.358 41.1228 42.826 40.8038 43.19L34.2988 50.625V53H43.2988V51H36.6278L42.3098 44.507C42.9468 43.777 43.2988 42.842 43.2988 41.873V41C43.2988 38.794 41.5048 37 39.2988 37Z" fill="white"/>
<path d="M55.2988 48V37H52.7778L45.2988 47.685V50H53.2988V53H55.2988V50H57.2988V48H55.2988ZM53.2988 48H47.5198L53.2988 39.744V48Z" fill="white"/>
<path d="M55.0618 31.46C55.2078 30.314 55.2988 29.155 55.2988 28C55.2988 13.112 43.1868 1 28.2988 1C13.4108 1 1.29883 13.112 1.29883 28C1.29883 42.888 13.4108 55 28.2988 55C29.4548 55 30.6138 54.909 31.7588 54.762C34.7388 59.689 40.1328 63 46.2988 63C55.6728 63 63.2988 55.374 63.2988 46C63.2988 39.834 59.9878 34.44 55.0618 31.46ZM28.2988 53C14.5138 53 3.29883 41.785 3.29883 28C3.29883 14.215 14.5138 3 28.2988 3C42.0838 3 53.2988 14.215 53.2988 28C53.2988 28.821 53.2438 29.642 53.1638 30.461C52.5348 30.182 51.8888 29.935 51.2228 29.733C51.2678 29.146 51.2988 28.564 51.2988 28C51.2988 15.318 40.9818 5 28.2988 5C15.6158 5 5.29883 15.318 5.29883 28C5.29883 40.682 15.6158 51 28.2988 51C28.8638 51 29.4458 50.969 30.0318 50.924C30.2338 51.59 30.4798 52.236 30.7598 52.865C29.9418 52.945 29.1198 53 28.2988 53ZM29.2988 46C29.2988 47.01 29.4038 47.994 29.5738 48.957C29.1418 48.984 28.7158 49 28.2988 49C22.8688 49 17.9288 46.91 14.1968 43.515L16.9848 40.728L15.5708 39.314L12.7828 42.101C9.59983 38.602 7.58783 34.035 7.34983 29H11.2988V27H7.34983C7.58883 21.965 9.59983 17.398 12.7838 13.899L15.5718 16.686L16.9858 15.272L14.1978 12.485C17.6968 9.301 22.2638 7.29 27.2988 7.051V11H29.2988V7.051C34.3338 7.29 38.9008 9.301 42.4008 12.485L39.6128 15.272L41.0268 16.686L43.8148 13.899C47.2088 17.63 49.2988 22.57 49.2988 28C49.2988 28.416 49.2828 28.843 49.2558 29.275C48.2938 29.105 47.3088 29 46.2988 29C36.9248 29 29.2988 36.626 29.2988 46ZM46.2988 61C38.0278 61 31.2988 54.271 31.2988 46C31.2988 37.729 38.0278 31 46.2988 31C54.5698 31 61.2988 37.729 61.2988 46C61.2988 54.271 54.5698 61 46.2988 61Z" fill="white"/>
<path d="M27.2988 27.586L22.5918 32.293L24.0058 33.707L29.2988 28.414V17H27.2988V27.586Z" fill="white"/>
</svg>
