<svg width="33" height="32" viewBox="0 0 33 32" fill="none" xmlns="http://www.w3.org/2000/svg">
<path d="M28.5613 17.0615L19.5613 26.0615C19.2795 26.3433 18.8973 26.5016 18.4988 26.5016C18.1002 26.5016 17.718 26.3433 17.4363 26.0615C17.1545 25.7797 16.9961 25.3975 16.9961 24.999C16.9961 24.6005 17.1545 24.2183 17.4363 23.9365L23.875 17.5002H5.5C5.10218 17.5002 4.72064 17.3422 4.43934 17.0609C4.15804 16.7796 4 16.398 4 16.0002C4 15.6024 4.15804 15.2209 4.43934 14.9396C4.72064 14.6583 5.10218 14.5002 5.5 14.5002H23.875L17.4387 8.06022C17.157 7.77843 16.9986 7.39623 16.9986 6.99772C16.9986 6.5992 17.157 6.21701 17.4387 5.93522C17.7205 5.65343 18.1027 5.49512 18.5012 5.49512C18.8998 5.49512 19.282 5.65343 19.5637 5.93522L28.5637 14.9352C28.7036 15.0748 28.8145 15.2406 28.8901 15.4231C28.9657 15.6056 29.0045 15.8013 29.0043 15.9989C29.0041 16.1964 28.9648 16.392 28.8888 16.5744C28.8127 16.7567 28.7014 16.9223 28.5613 17.0615Z" fill="white"/>
</svg>
