<svg width="21" height="21" viewBox="0 0 21 21" fill="none" xmlns="http://www.w3.org/2000/svg">
<path d="M14.6249 16.75C13.2499 17.6875 11.4999 18.1875 9.62488 17.9375C6.18738 17.5625 3.37488 14.75 2.99988 11.3125C2.56238 6.8125 6.06238 3 10.4999 3C10.6874 3 10.8749 3 10.9999 3C15.6874 3.3125 18.7499 8.1875 17.2499 12.6875V12.75C16.9374 13.625 16.1249 14.25 15.1874 14.25C13.9999 14.25 12.9999 13.25 12.9999 12.0625V7.375" stroke="#F4F4F4" stroke-width="2" stroke-miterlimit="10" stroke-linecap="round" stroke-linejoin="round"/>
<path d="M10.5 13.625C9.125 13.625 8 12.5 8 11.125V9.875C8 8.5 9.125 7.375 10.5 7.375C11.875 7.375 13 8.5 13 9.875V11.125C13 12.5 11.875 13.625 10.5 13.625Z" stroke="#F4F4F4" stroke-width="2" stroke-miterlimit="10" stroke-linecap="round" stroke-linejoin="round"/>
</svg>
