<svg width="16" height="24" viewBox="0 0 16 24" fill="none" xmlns="http://www.w3.org/2000/svg">
<path d="M10.0062 16.9366L13.7413 10.9308C13.7535 10.9113 13.7637 10.8909 13.7717 10.8697C14.4167 9.81794 14.7572 8.61643 14.7572 7.38976C14.7572 3.70975 11.7633 0.71582 8.08327 0.71582C4.40326 0.71582 1.40908 3.70975 1.40908 7.38976C1.40908 8.61668 1.75013 9.81869 2.3956 10.8712C2.40307 10.8897 2.41179 10.9076 2.42225 10.925L6.02329 16.9515C3.22791 17.3466 1.38965 18.4961 1.38965 19.8904C1.38965 21.618 4.32553 22.971 8.07331 22.971C11.8211 22.971 14.757 21.6178 14.757 19.8904C14.7572 18.4896 12.8333 17.3145 10.0062 16.9366ZM3.06648 10.5347C2.47108 9.587 2.15644 8.49959 2.15644 7.38976C2.15644 4.1218 4.81506 1.46318 8.08327 1.46318C11.3512 1.46318 14.0098 4.1218 14.0098 7.38976C14.0098 8.50009 13.6952 9.5875 13.1001 10.5347C13.0876 10.5546 13.0774 10.5753 13.0692 10.5967L9.1231 16.941C9.06381 17.032 9.0521 17.0527 8.97961 17.1717L7.98312 18.7741L3.09986 10.6019C3.09114 10.5788 3.07993 10.5561 3.06648 10.5347ZM8.07355 22.2236C4.57515 22.2236 2.13726 20.9937 2.13726 19.8904C2.13726 18.8889 3.97328 17.9452 6.44281 17.653L7.65603 19.6836C7.72304 19.7955 7.84312 19.8645 7.97341 19.8655C7.9744 19.8655 7.97565 19.8655 7.97665 19.8655C8.10569 19.8655 8.22577 19.7987 8.29403 19.6891L9.56952 17.6383C12.0784 17.9101 14.0096 18.8777 14.0096 19.8904C14.0098 20.994 11.572 22.2236 8.07355 22.2236Z" fill="white" stroke="white"/>
<path d="M10.5003 7.38957C10.5003 6.05155 9.41168 4.96289 8.07366 4.96289C6.73563 4.96289 5.64697 6.05155 5.64697 7.38957C5.64697 8.7276 6.73563 9.81626 8.07366 9.81626C9.41168 9.81626 10.5003 8.7276 10.5003 7.38957ZM6.39433 7.38957C6.39433 6.46359 7.14768 5.71025 8.07366 5.71025C8.99964 5.71025 9.75298 6.46359 9.75298 7.38957C9.75298 8.31556 8.99989 9.0689 8.07366 9.0689C7.14743 9.0689 6.39433 8.31556 6.39433 7.38957Z" fill="white" stroke="white"/>
</svg>
