<svg width="181" height="180" viewBox="0 0 181 180" fill="none" xmlns="http://www.w3.org/2000/svg">
<path d="M149.225 85.4501H141.598V21.9363C141.598 20.4268 141.301 18.9321 140.723 17.5376C140.145 16.143 139.299 14.8759 138.231 13.8085C137.164 12.7412 135.897 11.8945 134.502 11.3169C133.108 10.7392 131.613 10.4419 130.104 10.4419H61.1176C58.0691 10.4419 55.1455 11.6529 52.9899 13.8086C50.8343 15.9642 49.6233 18.8878 49.6233 21.9363V88.2606C46.9351 88.9279 44.4514 90.244 42.3898 92.0938C40.3281 93.9435 38.7514 96.2704 37.7976 98.8708C36.8438 101.471 36.542 104.266 36.9187 107.01C37.2954 109.754 38.339 112.364 39.9583 114.611C38.339 116.858 37.2953 119.468 36.9186 122.212C36.542 124.955 36.8438 127.75 37.7976 130.35C38.7514 132.95 40.3282 135.277 42.3899 137.126C44.4515 138.975 46.9352 140.291 49.6233 140.958V159.947C49.6233 162.996 50.8343 165.919 52.9899 168.075C55.1455 170.23 58.0691 171.442 61.1176 171.442H130.104C131.613 171.442 133.108 171.144 134.502 170.567C135.897 169.989 137.164 169.142 138.231 168.075C139.299 167.008 140.145 165.74 140.723 164.346C141.301 162.951 141.598 161.457 141.598 159.947V142.944H149.225C151.091 142.942 152.881 142.2 154.2 140.88C155.52 139.56 156.262 137.771 156.264 135.905V92.4891C156.262 90.6228 155.52 88.8337 154.2 87.5141C152.881 86.1945 151.091 85.4522 149.225 85.4501ZM53.7224 91.9758C56.2426 91.9758 58.7062 92.7231 60.8016 94.1233C62.8971 95.5234 64.5303 97.5135 65.4947 99.8418C66.4592 102.17 66.7115 104.732 66.2199 107.204C65.7282 109.676 64.5146 111.946 62.7326 113.728C60.9506 115.51 58.6801 116.724 56.2084 117.216C53.7366 117.707 51.1746 117.455 48.8462 116.491C46.5179 115.526 44.5278 113.893 43.1276 111.798C41.7274 109.702 40.9801 107.239 40.98 104.718C40.9838 101.34 42.3275 98.1011 44.7163 95.7122C47.1052 93.3234 50.3441 91.9796 53.7224 91.9758ZM40.98 124.501C40.9779 122.122 41.6466 119.791 42.9093 117.775C45.9478 120.298 49.7729 121.679 53.7224 121.679C57.6719 121.679 61.4971 120.298 64.5355 117.775C65.5771 119.449 66.2158 121.342 66.4014 123.306C66.5869 125.269 66.3142 127.248 65.6047 129.088C64.8952 130.928 63.7683 132.577 62.3127 133.908C60.8572 135.238 59.1127 136.212 57.2166 136.753C55.3206 137.295 53.3247 137.389 51.3862 137.028C49.4477 136.667 47.6195 135.86 46.0455 134.673C44.4716 133.485 43.1948 131.948 42.3158 130.183C41.4368 128.418 40.9795 126.473 40.98 124.501ZM103.655 164.336H87.5665V160.117H103.655V164.336ZM136.24 150.169C136.24 151.102 135.87 151.996 135.211 152.655C134.551 153.314 133.657 153.685 132.725 153.685H58.4965C57.5641 153.685 56.6699 153.314 56.0106 152.655C55.3513 151.996 54.9809 151.102 54.9809 150.169V141.41C57.9863 141.19 60.8786 140.172 63.3595 138.462C65.8404 136.751 67.8201 134.41 69.0944 131.679C70.3688 128.948 70.8916 125.927 70.6089 122.927C70.3263 119.926 69.2485 117.056 67.4866 114.611C69.2484 112.166 70.3263 109.295 70.6089 106.295C70.8916 103.295 70.3688 100.273 69.0946 97.5421C67.8203 94.8111 65.8406 92.4693 63.3597 90.7584C60.8788 89.0474 57.9865 88.0291 54.9809 87.8086V31.7144C54.9809 30.782 55.3513 29.8878 56.0106 29.2285C56.6699 28.5692 57.5641 28.1988 58.4965 28.1988H81.0145C77.9433 30.4101 75.4261 33.3028 73.6603 36.6501C71.8945 39.9974 70.9282 43.7082 70.837 47.4916L75.406 47.6011C75.512 43.1974 77.072 38.9524 79.8427 35.5279C82.6134 32.1035 86.4393 29.6918 90.7238 28.6689C95.0084 27.646 99.5111 28.0693 103.53 29.8729C107.549 31.6764 110.858 34.7589 112.942 38.6398L108.606 37.6759L107.614 42.1372L117.156 44.2583C117.699 44.3793 118.267 44.2982 118.754 44.0301C119.241 43.762 119.614 43.3253 119.802 42.8021L123.115 33.6059L118.815 32.0569L117.119 36.7652C115.359 33.3725 112.829 30.4387 109.732 28.1987H132.725C133.657 28.1987 134.551 28.5691 135.211 29.2284C135.87 29.8877 136.24 30.7819 136.24 31.7143V85.4501H84.7464C82.8802 85.4522 81.091 86.1945 79.7714 87.5141C78.4518 88.8337 77.7094 90.6229 77.7073 92.4891V135.905C77.7094 137.771 78.4517 139.56 79.7714 140.88C81.091 142.2 82.8802 142.942 84.7464 142.944H136.24V150.169ZM152.046 135.905C152.045 136.653 151.747 137.37 151.219 137.898C150.69 138.427 149.973 138.725 149.225 138.725H84.7464C83.9987 138.725 83.2818 138.427 82.753 137.898C82.2243 137.37 81.9269 136.653 81.926 135.905V92.4891C81.9269 91.7413 82.2243 91.0245 82.7531 90.4957C83.2818 89.967 83.9987 89.6696 84.7464 89.6688H149.225C149.973 89.6696 150.69 89.967 151.219 90.4957C151.747 91.0244 152.045 91.7413 152.046 92.4891V135.905Z" fill="#444444"/>
<path d="M139.574 95.6215C138.474 95.6192 137.394 95.9262 136.459 96.5074C137.561 97.9618 138.158 99.7365 138.158 101.561C138.158 103.386 137.561 105.16 136.459 106.615C137.394 107.196 138.474 107.503 139.574 107.501C141.15 107.501 142.66 106.875 143.774 105.761C144.888 104.647 145.514 103.136 145.514 101.561C145.514 99.9858 144.888 98.4751 143.774 97.3612C142.66 96.2473 141.15 95.6215 139.574 95.6215Z" fill="#444444"/>
<path d="M129.757 107.501C133.038 107.501 135.697 104.842 135.697 101.561C135.697 98.281 133.038 95.6218 129.757 95.6218C126.477 95.6218 123.818 98.281 123.818 101.561C123.818 104.842 126.477 107.501 129.757 107.501Z" fill="#444444"/>
<path d="M102.949 129.159H89.0645V133.377H102.949V129.159Z" fill="#444444"/>
<path d="M144.907 129.159H112.424V133.377H144.907V129.159Z" fill="#444444"/>
<path d="M144.907 120.632H89.0645V124.85H144.907V120.632Z" fill="#444444"/>
<path d="M90.5599 96.6165H96.8767C97.3505 96.6165 97.8048 96.8047 98.1398 97.1397C98.4748 97.4747 98.663 97.929 98.663 98.4028V104.72C98.663 105.193 98.4748 105.648 98.1398 105.983C97.8048 106.318 97.3505 106.506 96.8767 106.506H90.5598C90.086 106.506 89.6316 106.318 89.2966 105.983C88.9616 105.648 88.7734 105.193 88.7734 104.72V98.4029C88.7734 98.1683 88.8196 97.936 88.9094 97.7192C88.9992 97.5025 89.1308 97.3055 89.2967 97.1396C89.4626 96.9737 89.6595 96.8422 89.8763 96.7524C90.093 96.6626 90.3253 96.6164 90.5599 96.6165Z" fill="#444444"/>
<path d="M53.1826 105.592H54.2702C54.5613 105.594 54.84 105.71 55.0453 105.917C55.2506 106.123 55.3659 106.403 55.3659 106.694C55.3659 106.985 55.2506 107.264 55.0453 107.471C54.84 107.677 54.5613 107.794 54.2702 107.796H49.3078V110.96H51.8535V112.817H55.0176V110.89C56.0673 110.704 57.0091 110.131 57.6573 109.284C58.3054 108.437 58.6129 107.379 58.5191 106.317C58.4253 105.255 57.937 104.266 57.1505 103.546C56.364 102.827 55.3363 102.428 54.2702 102.428H53.1825C53.0756 102.429 52.9696 102.408 52.8706 102.368C52.7715 102.327 52.6815 102.268 52.6056 102.192C52.5298 102.117 52.4696 102.027 52.4285 101.929C52.3874 101.83 52.3662 101.724 52.3662 101.617C52.3662 101.51 52.3874 101.404 52.4285 101.305C52.4696 101.207 52.5298 101.117 52.6056 101.042C52.6815 100.966 52.7715 100.907 52.8706 100.866C52.9696 100.826 53.0756 100.805 53.1825 100.806H58.1373V97.642H55.3046V95.7847H52.1405V97.7853C51.2112 98.0374 50.4051 98.6185 49.8721 99.4204C49.3391 100.222 49.1155 101.191 49.2429 102.145C49.3703 103.099 49.84 103.975 50.5647 104.609C51.2893 105.243 52.2197 105.592 53.1826 105.592Z" fill="#444444"/>
<path d="M93.8987 73.96C94.0762 73.9637 94.2532 73.9656 94.4296 73.9656C100.84 73.9562 106.992 71.4403 111.573 66.9554C116.153 62.4705 118.797 56.3723 118.942 49.9636L114.373 49.8661C114.255 55.0807 112.104 60.0426 108.377 63.6918C104.65 67.341 99.6438 69.388 94.428 69.3954C94.2852 69.3954 94.1399 69.3938 93.9961 69.3907C90.4689 69.3196 87.0238 68.3132 84.013 66.4743C81.0022 64.6354 78.5337 62.03 76.8598 58.9245L81.1987 59.8772L82.1786 55.4131L72.6314 53.3172C72.0884 53.1977 71.5205 53.2804 71.0341 53.5497C70.5477 53.819 70.1762 54.2565 69.9892 54.7801L66.7002 63.9847L71.0037 65.5226L72.6879 60.8101C74.7195 64.7025 77.7604 67.977 81.4921 70.2905C85.2238 72.604 89.5089 73.8714 93.8987 73.96Z" fill="#444444"/>
<path d="M92.5893 61.1092H96.8081V58.0312C98.3354 57.8125 99.723 57.0231 100.692 55.8221C101.66 54.6211 102.137 53.0976 102.028 51.5587C101.918 50.0197 101.229 48.5796 100.099 47.5284C98.9698 46.4772 97.4841 45.893 95.9412 45.8936H94.3224C93.9374 45.8936 93.5682 45.7407 93.296 45.4684C93.0238 45.1962 92.8708 44.827 92.8708 44.442C92.8708 44.0571 93.0238 43.6878 93.296 43.4156C93.5682 43.1434 93.9374 42.9905 94.3224 42.9905H101.696V38.7717H97.2355V35.7627H93.0167V38.9295C91.664 39.2488 90.4757 40.054 89.6779 41.1921C88.8801 42.3302 88.5283 43.7219 88.6895 45.1024C88.8507 46.4829 89.5136 47.7561 90.5521 48.6798C91.5907 49.6035 92.9325 50.1133 94.3224 50.1124H95.9412C96.441 50.1124 96.9203 50.3109 97.2737 50.6643C97.6271 51.0177 97.8257 51.4971 97.8257 51.9969C97.8257 52.4967 97.6271 52.976 97.2737 53.3294C96.9203 53.6828 96.441 53.8814 95.9412 53.8814H88.5566V58.1001H92.5893V61.1092Z" fill="#444444"/>
</svg>
