<svg width="26" height="25" viewBox="0 0 26 25" fill="none" xmlns="http://www.w3.org/2000/svg">
<g clip-path="url(#clip0_36_116)">
<path d="M9.5332 12.1874C10.3371 13.8476 11.6796 15.1866 13.3418 15.9863C13.4644 16.0443 13.6 16.0695 13.7353 16.0592C13.8706 16.0489 14.0008 16.0036 14.1133 15.9277L16.5547 14.2968C16.6626 14.2237 16.7872 14.179 16.917 14.1671C17.0468 14.1551 17.1775 14.1762 17.2969 14.2285L21.8672 16.1913C22.0234 16.2564 22.1539 16.3709 22.2386 16.5174C22.3233 16.6638 22.3575 16.8341 22.3359 17.0019C22.1911 18.1325 21.6392 19.1716 20.7836 19.9247C19.928 20.6779 18.8273 21.0934 17.6875 21.0937C14.1651 21.0937 10.787 19.6944 8.29624 17.2037C5.80552 14.713 4.40625 11.3348 4.40625 7.81244C4.40651 6.67259 4.82208 5.57189 5.57522 4.7163C6.32836 3.86071 7.36744 3.30886 8.49805 3.164C8.66586 3.14245 8.8361 3.17665 8.98256 3.26135C9.12903 3.34605 9.24358 3.47655 9.30859 3.63275L11.2715 8.21283C11.3225 8.33036 11.3439 8.45864 11.3337 8.58636C11.3234 8.71409 11.282 8.83734 11.2129 8.94525L9.58203 11.4257C9.50943 11.5379 9.46681 11.6669 9.45826 11.8002C9.44971 11.9336 9.47552 12.0669 9.5332 12.1874Z" stroke="white" stroke-width="2" stroke-linecap="round" stroke-linejoin="round"/>
</g>
<defs>
<clipPath id="clip0_36_116">
<rect width="25" height="25" fill="white" transform="translate(0.5)"/>
</clipPath>
</defs>
</svg>
