<svg width="15" height="12" viewBox="0 0 15 12" fill="none" xmlns="http://www.w3.org/2000/svg">
<path d="M14.7447 1.99752L5.51669 11.2256C5.43632 11.3062 5.34082 11.3702 5.23566 11.4139C5.1305 11.4575 5.01776 11.48 4.90389 11.48C4.79003 11.48 4.67729 11.4575 4.57213 11.4139C4.46697 11.3702 4.37147 11.3062 4.29109 11.2256L0.25383 7.18829C0.173356 7.10781 0.10952 7.01228 0.0659682 6.90713C0.022416 6.80199 1.19916e-09 6.6893 0 6.57549C-1.19915e-09 6.46168 0.022416 6.34899 0.0659682 6.24384C0.10952 6.1387 0.173356 6.04316 0.25383 5.96269C0.334304 5.88222 0.42984 5.81838 0.534984 5.77483C0.640128 5.73128 0.752822 5.70886 0.866629 5.70886C0.980436 5.70886 1.09313 5.73128 1.19827 5.77483C1.30342 5.81838 1.39895 5.88222 1.47943 5.96269L4.90461 9.38788L13.5206 0.773361C13.6831 0.610836 13.9035 0.519531 14.1334 0.519531C14.3632 0.519531 14.5836 0.610836 14.7462 0.773361C14.9087 0.935885 15 1.15632 15 1.38616C15 1.616 14.9087 1.83644 14.7462 1.99896L14.7447 1.99752Z" fill="black"/>
</svg>
