<svg width="181" height="180" viewBox="0 0 181 180" fill="none" xmlns="http://www.w3.org/2000/svg">
<path fill-rule="evenodd" clip-rule="evenodd" d="M130.239 36.2598C137.705 36.305 150.166 38.4235 158.36 41.8156C161.886 43.5912 164.744 46.5226 165.418 49.6238L169.189 78.2716L169.329 119.555L162.883 119.678V125.646C163.225 133.375 151.453 133.68 151.17 125.571L151.057 119.576L109.422 119.576L109.309 125.571C109.026 133.68 97.254 133.375 97.5962 125.647V119.678L91.1504 119.555L91.2899 78.2717L95.0611 49.6239C95.7349 46.5227 98.5926 43.5913 102.119 41.8157C110.256 38.2924 121.165 36.3409 130.239 36.2598Z" fill="#444444" stroke="#444444" stroke-width="1.41664"/>
<path d="M108.409 101.391C108.409 102.774 107.859 104.1 106.882 105.078C105.904 106.056 104.577 106.605 103.195 106.605C101.812 106.605 100.485 106.056 99.5076 105.078C98.5298 104.1 97.9805 102.774 97.9805 101.391C97.9805 100.008 98.5298 98.6819 99.5076 97.7041C100.485 96.7262 101.812 96.1769 103.195 96.1769C104.577 96.1769 105.904 96.7262 106.882 97.7041C107.859 98.6819 108.409 100.008 108.409 101.391Z" fill="#FB8C00" stroke="#FB8C00" stroke-width="1.44097"/>
<path d="M162.065 101.391C162.065 102.774 161.516 104.1 160.538 105.078C159.56 106.056 158.234 106.605 156.851 106.605C155.468 106.605 154.142 106.056 153.164 105.078C152.187 104.1 151.637 102.774 151.637 101.391C151.637 100.008 152.187 98.6818 153.164 97.7039C154.142 96.7261 155.468 96.1768 156.851 96.1768C158.234 96.1768 159.56 96.7261 160.538 97.7039C161.516 98.6818 162.065 100.008 162.065 101.391Z" fill="#FB8C00" stroke="#FB8C00" stroke-width="1.44097"/>
<path d="M146.19 44.3684H114.357C113.361 44.3684 112.555 44.9735 112.555 45.7198V46.9211C112.555 47.6675 113.361 48.2725 114.357 48.2725H146.19C147.185 48.2725 147.992 47.6675 147.992 46.9211V45.7198C147.992 44.9735 147.185 44.3684 146.19 44.3684Z" fill="#FB8C00" stroke="#FB8C00" stroke-width="1.41664"/>
<path d="M130.072 53.8473H155.824C156.822 53.8473 158.226 55.2759 158.226 56.0246C159.588 63.8378 160.559 71.4561 161.53 79.0738C161.755 81.3992 160.576 82.0019 157.551 81.8517L102.719 81.8328C99.6936 81.983 98.5145 81.3803 98.7398 79.0549C99.7102 71.4372 100.682 63.8189 102.043 56.0057C102.043 55.257 103.448 53.8284 104.446 53.8284H130.198" fill="#FB8C00"/>
<path d="M130.072 53.8473H155.824C156.822 53.8473 158.226 55.2759 158.226 56.0246C159.588 63.8378 160.559 71.4561 161.53 79.0738C161.755 81.3992 160.576 82.0019 157.551 81.8517L102.719 81.8328C99.6936 81.983 98.5145 81.3803 98.7398 79.0549C99.7102 71.4372 100.682 63.8189 102.043 56.0057C102.043 55.257 103.448 53.8284 104.446 53.8284H130.198" stroke="#FB8C00" stroke-width="1.41664"/>
<path fill-rule="evenodd" clip-rule="evenodd" d="M55.6113 64.4493C57.5315 64.7419 57.907 65.5098 57.9446 66.8474V70.8012L66.6947 70.9308C70.0019 70.8138 72.8446 71.8838 74.6021 75.7271L80.954 91.6068C85.5775 92.8815 87.5881 96.2404 87.6948 98.9957V119.801H81.6021V126.801C81.8976 133.474 70.9577 133.736 70.7132 126.737L70.5836 119.866L31.0316 119.866L30.902 126.737C30.6574 133.736 19.7176 133.474 20.013 126.801V119.801H13.9204V98.9957C14.027 96.2403 16.0377 92.8814 20.6612 91.6067L27.0131 75.727C28.7706 71.8837 31.6133 70.8137 34.9205 70.9307L43.6705 70.8011V66.8474C43.7081 65.5097 44.0836 64.7418 46.0039 64.4492L55.6113 64.4493Z" fill="#444444" stroke="#444444" stroke-width="1.22297"/>
<path fill-rule="evenodd" clip-rule="evenodd" d="M27.04 91.2817L74.6285 91.3465L70.0565 79.0258C68.9399 76.5433 67.8242 76.4897 65.1984 76.5509L36.5081 76.4593C34.1424 76.3633 32.3636 76.5587 31.5583 79.3008L27.04 91.2817Z" fill="#FB8C00" stroke="#444444" stroke-width="1.22297"/>
<path d="M81.3923 102.658C81.3925 103.334 81.2593 104.005 81.0005 104.63C80.7417 105.255 80.3622 105.823 79.8837 106.302C79.4053 106.78 78.8373 107.16 78.2121 107.419C77.5869 107.678 76.9168 107.811 76.2401 107.811C75.5634 107.811 74.8933 107.678 74.2681 107.419C73.6429 107.16 73.0749 106.78 72.5964 106.302C72.118 105.823 71.7385 105.255 71.4797 104.63C71.2208 104.005 71.0877 103.334 71.0879 102.658C71.0877 101.981 71.2208 101.311 71.4797 100.686C71.7385 100.06 72.118 99.4923 72.5964 99.0137C73.0749 98.5351 73.6429 98.1555 74.2681 97.8965C74.8933 97.6375 75.5634 97.5042 76.2401 97.5042C76.9168 97.5042 77.5869 97.6375 78.2121 97.8965C78.8373 98.1555 79.4053 98.5351 79.8837 99.0137C80.3622 99.4923 80.7417 100.06 81.0005 100.686C81.2593 101.311 81.3925 101.981 81.3923 102.658Z" fill="#FB8C00" stroke="#444444" stroke-width="1.22669"/>
<path d="M30.8093 102.658C30.8095 103.334 30.6763 104.005 30.4175 104.63C30.1587 105.255 29.7792 105.823 29.3007 106.302C28.8223 106.78 28.2543 107.16 27.6291 107.419C27.0039 107.678 26.3338 107.811 25.6571 107.811C24.9804 107.811 24.3103 107.678 23.6851 107.419C23.0599 107.16 22.4919 106.78 22.0134 106.302C21.535 105.823 21.1555 105.255 20.8967 104.63C20.6378 104.005 20.5047 103.334 20.5049 102.658C20.5047 101.981 20.6378 101.311 20.8967 100.686C21.1555 100.06 21.535 99.4923 22.0134 99.0137C22.4919 98.5351 23.0599 98.1555 23.6851 97.8965C24.3103 97.6375 24.9804 97.5042 25.6571 97.5042C26.3338 97.5042 27.0039 97.6375 27.6291 97.8965C28.2543 98.1555 28.8223 98.5351 29.3007 99.0137C29.7792 99.4923 30.1587 100.06 30.4175 100.686C30.6763 101.311 30.8095 101.981 30.8093 102.658Z" fill="#FB8C00" stroke="#444444" stroke-width="1.22669"/>
</svg>
